<?xml version="1.0" standalone="no"?>
<!DOCTYPE svg PUBLIC "-//W3C//DTD SVG 20010904//EN"
 "http://www.w3.org/TR/2001/REC-SVG-20010904/DTD/svg10.dtd">
<svg version="1.0" xmlns="http://www.w3.org/2000/svg"
 width="800.000000pt" height="800.000000pt" viewBox="0 0 800.000000 800.000000"
 preserveAspectRatio="xMidYMid meet">
<metadata>
Created by potrace 1.11, written by Peter Selinger 2001-2013
</metadata>
<g transform="translate(0.000000,800.000000) scale(0.100000,-0.100000)"
fill="#000000" stroke="none">
<path d="M2670 6670 l0 -190 -190 0 -190 0 -2 -382 -3 -383 -192 -3 -193 -2 0
-570 0 -570 385 0 385 0 0 190 0 190 380 0 380 0 0 190 0 190 -190 0 -190 0 0
190 0 190 190 0 190 0 0 195 0 195 380 0 380 0 0 -385 0 -385 190 0 190 0 0
-190 0 -190 -190 0 -190 0 0 -190 0 -190 760 0 760 0 0 190 0 190 -380 0 -380
0 0 190 0 190 -190 0 -190 0 0 385 0 385 570 0 570 0 0 190 0 190 -570 0 -570
0 0 190 0 190 -950 0 -950 0 0 -190z m0 -1340 l0 -380 -190 0 -190 0 0 380 0
380 190 0 190 0 0 -380z"/>
<path d="M2290 4000 l0 -190 -195 0 -196 0 3 -190 3 -190 -192 0 -193 0 0
-190 0 -190 385 0 385 0 0 -190 0 -190 190 0 190 0 -2 -192 -3 -193 -185 0
-185 0 -5 -380 -5 -380 -192 -3 -193 -2 0 -190 0 -190 -190 0 -190 0 0 -190 0
-190 765 0 765 0 0 380 0 380 760 0 760 0 0 -380 0 -380 765 0 765 0 0 190 0
190 -195 0 -195 0 0 190 0 190 -187 2 -188 3 -2 379 -1 379 -189 1 -188 1 -3
193 -2 192 190 0 190 0 0 190 0 190 385 0 385 0 0 190 0 190 -195 0 -195 0 0
190 0 190 -570 0 -570 0 0 190 0 190 -1140 0 -1140 0 0 -190z m760 -1145 l0
-196 -176 1 c-98 1 -183 4 -190 7 -11 4 -14 44 -14 194 l0 189 190 0 190 0 0
-195z m1900 5 c0 -189 0 -190 -23 -195 -12 -3 -97 -5 -187 -3 l-165 3 -3 193
-2 192 190 0 190 0 0 -190z"/>
</g>
</svg>
